<svg width="245" height="77" viewBox="0 0 245 77" fill="none" xmlns="http://www.w3.org/2000/svg">
<path d="M38 10H216.5C232.24 10 245 22.7599 245 38.5C245 54.2401 232.24 67 216.5 67H38V10Z" fill="url(#paint0_linear_2001_2)"/>
<g clip-path="url(#clip0_2001_2)">
<path d="M1.50391 75.6616L6.7375 56.577C3.5041 50.9975 1.80469 44.651 1.80469 38.1692C1.81973 17.8514 18.3477 1.3385 38.6504 1.3385C48.501 1.3385 57.765 5.17346 64.7131 12.1365C71.6762 19.0996 75.5111 28.3487 75.4961 38.1992C75.4811 58.502 58.9531 75.0299 38.6504 75.0299H38.6353C32.4693 75.0299 26.4086 73.4809 21.0246 70.5483L1.50391 75.6616Z" fill="url(#paint1_linear_2001_2)"/>
<path d="M0.165405 77L5.57947 57.2236C2.2408 51.4486 0.496265 44.8766 0.496265 38.1541C0.496265 17.1145 17.6258 0 38.6654 0C48.8769 0 58.4568 3.98535 65.6605 11.1891C72.8642 18.4078 76.8345 27.9877 76.8345 38.1842C76.8195 59.2238 59.7051 76.3383 38.6654 76.3383H38.6504C32.2588 76.3383 25.9875 74.7291 20.408 71.6912L0.165405 77ZM21.3404 64.7883L22.4984 65.4801C27.3711 68.3676 32.9506 69.9016 38.6504 69.9016H38.6654C56.1558 69.9016 70.3828 55.6746 70.3828 38.1842C70.3828 29.7172 67.0892 21.7465 61.1037 15.7459C55.1181 9.74531 47.1474 6.45176 38.6804 6.45176C21.175 6.45176 6.94802 20.6787 6.94802 38.1691C6.94802 44.1547 8.61736 49.9898 11.7906 55.043L12.5426 56.2461L9.33923 67.9465L21.3404 64.7883Z" fill="url(#paint2_linear_2001_2)"/>
<path fill-rule="evenodd" clip-rule="evenodd" d="M29.1156 22.1976C28.3938 20.6035 27.6418 20.5734 26.965 20.5433C26.4086 20.5133 25.777 20.5283 25.1303 20.5283C24.4986 20.5283 23.4609 20.7689 22.5887 21.7164C21.7164 22.6638 19.25 24.9799 19.25 29.672C19.25 34.3642 22.6639 38.906 23.1451 39.5377C23.6264 40.1693 29.7473 50.1101 39.4324 53.9301C47.4934 57.1033 49.1326 56.4717 50.8771 56.3213C52.6217 56.1709 56.5168 54.0203 57.3139 51.7945C58.1109 49.5687 58.1109 47.6588 57.8703 47.2677C57.6297 46.8767 56.998 46.6361 56.0355 46.1549C55.0881 45.6736 50.3959 43.3726 49.5236 43.0568C48.6514 42.741 48.0197 42.5756 47.373 43.5381C46.7414 44.4855 44.9066 46.6361 44.3502 47.2677C43.7937 47.8994 43.2373 47.9896 42.2898 47.5084C41.3424 47.0271 38.2594 46.0195 34.6199 42.7711C31.7775 40.2445 29.8676 37.1164 29.3111 36.1689C28.7547 35.2215 29.251 34.6951 29.7322 34.2289C30.1533 33.8078 30.6797 33.116 31.1609 32.5595C31.6422 32.0031 31.7926 31.6121 32.1084 30.9654C32.4242 30.3338 32.2738 29.7773 32.0332 29.2961C31.8227 28.7998 29.9729 24.0926 29.1156 22.1976Z" fill="white"/>
</g>
<path d="M119.82 21L115.24 35H111.76L108.68 25.52L105.5 35H102.04L97.44 21H100.8L103.96 30.84L107.26 21H110.26L113.46 30.92L116.72 21H119.82ZM128.242 24.08C129.575 24.08 130.648 24.48 131.462 25.28C132.288 26.08 132.702 27.2667 132.702 28.84V35H129.582V29.32C129.582 28.4667 129.395 27.8333 129.022 27.42C128.648 26.9933 128.108 26.78 127.402 26.78C126.615 26.78 125.988 27.0267 125.522 27.52C125.055 28 124.822 28.72 124.822 29.68V35H121.702V20.16H124.822V25.36C125.235 24.9467 125.735 24.6333 126.322 24.42C126.908 24.1933 127.548 24.08 128.242 24.08ZM139.87 24.08C141.537 24.08 142.817 24.48 143.71 25.28C144.603 26.0667 145.05 27.26 145.05 28.86V35H142.13V33.66C141.543 34.66 140.45 35.16 138.85 35.16C138.023 35.16 137.303 35.02 136.69 34.74C136.09 34.46 135.63 34.0733 135.31 33.58C134.99 33.0867 134.83 32.5267 134.83 31.9C134.83 30.9 135.203 30.1133 135.95 29.54C136.71 28.9667 137.877 28.68 139.45 28.68H141.93C141.93 28 141.723 27.48 141.31 27.12C140.897 26.7467 140.277 26.56 139.45 26.56C138.877 26.56 138.31 26.6533 137.75 26.84C137.203 27.0133 136.737 27.2533 136.35 27.56L135.23 25.38C135.817 24.9667 136.517 24.6467 137.33 24.42C138.157 24.1933 139.003 24.08 139.87 24.08ZM139.63 33.06C140.163 33.06 140.637 32.94 141.05 32.7C141.463 32.4467 141.757 32.08 141.93 31.6V30.5H139.79C138.51 30.5 137.87 30.92 137.87 31.76C137.87 32.16 138.023 32.48 138.33 32.72C138.65 32.9467 139.083 33.06 139.63 33.06ZM154.814 34.48C154.507 34.7067 154.127 34.88 153.674 35C153.234 35.1067 152.767 35.16 152.274 35.16C150.994 35.16 150 34.8333 149.294 34.18C148.6 33.5267 148.254 32.5667 148.254 31.3V26.88H146.594V24.48H148.254V21.86H151.374V24.48H154.054V26.88H151.374V31.26C151.374 31.7133 151.487 32.0667 151.714 32.32C151.954 32.56 152.287 32.68 152.714 32.68C153.207 32.68 153.627 32.5467 153.974 32.28L154.814 34.48ZM160.185 35.16C159.292 35.16 158.418 35.0533 157.565 34.84C156.712 34.6133 156.032 34.3333 155.525 34L156.565 31.76C157.045 32.0667 157.625 32.32 158.305 32.52C158.985 32.7067 159.652 32.8 160.305 32.8C161.625 32.8 162.285 32.4733 162.285 31.82C162.285 31.5133 162.105 31.2933 161.745 31.16C161.385 31.0267 160.832 30.9133 160.085 30.82C159.205 30.6867 158.478 30.5333 157.905 30.36C157.332 30.1867 156.832 29.88 156.405 29.44C155.992 29 155.785 28.3733 155.785 27.56C155.785 26.88 155.978 26.28 156.365 25.76C156.765 25.2267 157.338 24.8133 158.085 24.52C158.845 24.2267 159.738 24.08 160.765 24.08C161.525 24.08 162.278 24.1667 163.025 24.34C163.785 24.5 164.412 24.7267 164.905 25.02L163.865 27.24C162.918 26.7067 161.885 26.44 160.765 26.44C160.098 26.44 159.598 26.5333 159.265 26.72C158.932 26.9067 158.765 27.1467 158.765 27.44C158.765 27.7733 158.945 28.0067 159.305 28.14C159.665 28.2733 160.238 28.4 161.025 28.52C161.905 28.6667 162.625 28.8267 163.185 29C163.745 29.16 164.232 29.46 164.645 29.9C165.058 30.34 165.265 30.9533 165.265 31.74C165.265 32.4067 165.065 33 164.665 33.52C164.265 34.04 163.678 34.4467 162.905 34.74C162.145 35.02 161.238 35.16 160.185 35.16ZM176.63 32H170.13L168.89 35H165.57L171.81 21H175.01L181.27 35H177.87L176.63 32ZM175.61 29.54L173.39 24.18L171.17 29.54H175.61ZM188.863 24.08C189.863 24.08 190.769 24.3133 191.583 24.78C192.409 25.2333 193.056 25.88 193.523 26.72C193.989 27.5467 194.223 28.5133 194.223 29.62C194.223 30.7267 193.989 31.7 193.523 32.54C193.056 33.3667 192.409 34.0133 191.583 34.48C190.769 34.9333 189.863 35.16 188.863 35.16C187.489 35.16 186.409 34.7267 185.623 33.86V38.88H182.503V24.24H185.483V25.48C186.256 24.5467 187.383 24.08 188.863 24.08ZM188.323 32.6C189.123 32.6 189.776 32.3333 190.283 31.8C190.803 31.2533 191.062 30.5267 191.062 29.62C191.062 28.7133 190.803 27.9933 190.283 27.46C189.776 26.9133 189.123 26.64 188.323 26.64C187.523 26.64 186.863 26.9133 186.342 27.46C185.836 27.9933 185.583 28.7133 185.583 29.62C185.583 30.5267 185.836 31.2533 186.342 31.8C186.863 32.3333 187.523 32.6 188.323 32.6ZM202.671 24.08C203.671 24.08 204.578 24.3133 205.391 24.78C206.218 25.2333 206.864 25.88 207.331 26.72C207.798 27.5467 208.031 28.5133 208.031 29.62C208.031 30.7267 207.798 31.7 207.331 32.54C206.864 33.3667 206.218 34.0133 205.391 34.48C204.578 34.9333 203.671 35.16 202.671 35.16C201.298 35.16 200.218 34.7267 199.431 33.86V38.88H196.311V24.24H199.291V25.48C200.064 24.5467 201.191 24.08 202.671 24.08ZM202.131 32.6C202.931 32.6 203.584 32.3333 204.091 31.8C204.611 31.2533 204.871 30.5267 204.871 29.62C204.871 28.7133 204.611 27.9933 204.091 27.46C203.584 26.9133 202.931 26.64 202.131 26.64C201.331 26.64 200.671 26.9133 200.151 27.46C199.644 27.9933 199.391 28.7133 199.391 29.62C199.391 30.5267 199.644 31.2533 200.151 31.8C200.671 32.3333 201.331 32.6 202.131 32.6Z" fill="white"/>
<path d="M103.688 56.096C102.579 56.096 101.576 55.8507 100.68 55.36C99.7947 54.8693 99.096 54.192 98.584 53.328C98.0827 52.4533 97.832 51.4773 97.832 50.4C97.832 49.3227 98.0827 48.352 98.584 47.488C99.096 46.6133 99.8 45.9307 100.696 45.44C101.592 44.9493 102.595 44.704 103.704 44.704C104.536 44.704 105.304 44.8427 106.008 45.12C106.712 45.3973 107.309 45.8027 107.8 46.336L107.048 47.088C106.173 46.2027 105.069 45.76 103.736 45.76C102.851 45.76 102.045 45.9627 101.32 46.368C100.595 46.7733 100.024 47.328 99.608 48.032C99.2027 48.736 99 49.5253 99 50.4C99 51.2747 99.2027 52.064 99.608 52.768C100.024 53.472 100.595 54.0267 101.32 54.432C102.045 54.8373 102.851 55.04 103.736 55.04C105.08 55.04 106.184 54.592 107.048 53.696L107.8 54.448C107.309 54.9813 106.707 55.392 105.992 55.68C105.288 55.9573 104.52 56.096 103.688 56.096ZM110.084 44.128H111.22V56H110.084V44.128ZM114.381 47.584H115.517V56H114.381V47.584ZM114.957 45.744C114.722 45.744 114.525 45.664 114.365 45.504C114.205 45.344 114.125 45.152 114.125 44.928C114.125 44.7147 114.205 44.528 114.365 44.368C114.525 44.208 114.722 44.128 114.957 44.128C115.192 44.128 115.389 44.208 115.549 44.368C115.709 44.5173 115.789 44.6987 115.789 44.912C115.789 45.1467 115.709 45.344 115.549 45.504C115.389 45.664 115.192 45.744 114.957 45.744ZM122.166 56.08C121.334 56.08 120.587 55.8987 119.926 55.536C119.275 55.1733 118.763 54.6667 118.39 54.016C118.016 53.3547 117.83 52.6133 117.83 51.792C117.83 50.9707 118.016 50.2347 118.39 49.584C118.763 48.9333 119.275 48.4267 119.926 48.064C120.587 47.7013 121.334 47.52 122.166 47.52C122.891 47.52 123.536 47.664 124.102 47.952C124.678 48.2293 125.131 48.64 125.462 49.184L124.614 49.76C124.336 49.344 123.984 49.0347 123.558 48.832C123.131 48.6187 122.667 48.512 122.166 48.512C121.558 48.512 121.008 48.6507 120.518 48.928C120.038 49.1947 119.659 49.5787 119.382 50.08C119.115 50.5813 118.982 51.152 118.982 51.792C118.982 52.4427 119.115 53.0187 119.382 53.52C119.659 54.0107 120.038 54.3947 120.518 54.672C121.008 54.9387 121.558 55.072 122.166 55.072C122.667 55.072 123.131 54.9707 123.558 54.768C123.984 54.5653 124.336 54.256 124.614 53.84L125.462 54.416C125.131 54.96 124.678 55.376 124.102 55.664C123.526 55.9413 122.88 56.08 122.166 56.08ZM130.688 51.776L128.704 53.6V56H127.568V44.128H128.704V52.176L133.728 47.584H135.136L131.536 51.024L135.472 56H134.08L130.688 51.776ZM145.797 55.488C145.584 55.68 145.317 55.8293 144.997 55.936C144.688 56.032 144.363 56.08 144.021 56.08C143.232 56.08 142.624 55.8667 142.197 55.44C141.771 55.0133 141.557 54.4107 141.557 53.632V48.544H140.053V47.584H141.557V45.744H142.693V47.584H145.253V48.544H142.693V53.568C142.693 54.0693 142.816 54.4533 143.061 54.72C143.317 54.976 143.68 55.104 144.149 55.104C144.384 55.104 144.608 55.0667 144.821 54.992C145.045 54.9173 145.237 54.8107 145.397 54.672L145.797 55.488ZM151.008 56.08C150.198 56.08 149.467 55.8987 148.816 55.536C148.166 55.1627 147.654 54.6507 147.28 54C146.907 53.3493 146.72 52.6133 146.72 51.792C146.72 50.9707 146.907 50.2347 147.28 49.584C147.654 48.9333 148.166 48.4267 148.816 48.064C149.467 47.7013 150.198 47.52 151.008 47.52C151.819 47.52 152.55 47.7013 153.2 48.064C153.851 48.4267 154.358 48.9333 154.72 49.584C155.094 50.2347 155.28 50.9707 155.28 51.792C155.28 52.6133 155.094 53.3493 154.72 54C154.358 54.6507 153.851 55.1627 153.2 55.536C152.55 55.8987 151.819 56.08 151.008 56.08ZM151.008 55.072C151.606 55.072 152.139 54.9387 152.608 54.672C153.088 54.3947 153.462 54.0053 153.728 53.504C153.995 53.0027 154.128 52.432 154.128 51.792C154.128 51.152 153.995 50.5813 153.728 50.08C153.462 49.5787 153.088 49.1947 152.608 48.928C152.139 48.6507 151.606 48.512 151.008 48.512C150.411 48.512 149.872 48.6507 149.392 48.928C148.923 49.1947 148.55 49.5787 148.272 50.08C148.006 50.5813 147.872 51.152 147.872 51.792C147.872 52.432 148.006 53.0027 148.272 53.504C148.55 54.0053 148.923 54.3947 149.392 54.672C149.872 54.9387 150.411 55.072 151.008 55.072ZM166.891 56.096C165.782 56.096 164.779 55.8507 163.883 55.36C162.998 54.8693 162.299 54.192 161.787 53.328C161.286 52.4533 161.035 51.4773 161.035 50.4C161.035 49.3227 161.286 48.352 161.787 47.488C162.299 46.6133 163.003 45.9307 163.899 45.44C164.795 44.9493 165.798 44.704 166.907 44.704C167.739 44.704 168.507 44.8427 169.211 45.12C169.915 45.3973 170.512 45.8027 171.003 46.336L170.251 47.088C169.376 46.2027 168.272 45.76 166.939 45.76C166.054 45.76 165.248 45.9627 164.523 46.368C163.798 46.7733 163.227 47.328 162.811 48.032C162.406 48.736 162.203 49.5253 162.203 50.4C162.203 51.2747 162.406 52.064 162.811 52.768C163.227 53.472 163.798 54.0267 164.523 54.432C165.248 54.8373 166.054 55.04 166.939 55.04C168.283 55.04 169.387 54.592 170.251 53.696L171.003 54.448C170.512 54.9813 169.91 55.392 169.195 55.68C168.491 55.9573 167.723 56.096 166.891 56.096ZM177.575 47.52C178.631 47.52 179.468 47.8293 180.087 48.448C180.716 49.056 181.031 49.9467 181.031 51.12V56H179.895V51.232C179.895 50.3573 179.676 49.6907 179.239 49.232C178.802 48.7733 178.178 48.544 177.367 48.544C176.46 48.544 175.74 48.816 175.207 49.36C174.684 49.8933 174.423 50.6347 174.423 51.584V56H173.287V44.128H174.423V49.056C174.732 48.5653 175.159 48.1867 175.703 47.92C176.247 47.6533 176.871 47.52 177.575 47.52ZM187.059 47.52C188.158 47.52 189.001 47.7973 189.587 48.352C190.174 48.896 190.467 49.7067 190.467 50.784V56H189.379V54.688C189.123 55.1253 188.745 55.4667 188.243 55.712C187.753 55.9573 187.166 56.08 186.483 56.08C185.545 56.08 184.798 55.856 184.243 55.408C183.689 54.96 183.411 54.368 183.411 53.632C183.411 52.9173 183.667 52.3413 184.179 51.904C184.702 51.4667 185.529 51.248 186.659 51.248H189.331V50.736C189.331 50.0107 189.129 49.4613 188.723 49.088C188.318 48.704 187.726 48.512 186.947 48.512C186.414 48.512 185.902 48.6027 185.411 48.784C184.921 48.9547 184.499 49.1947 184.147 49.504L183.635 48.656C184.062 48.2933 184.574 48.016 185.171 47.824C185.769 47.6213 186.398 47.52 187.059 47.52ZM186.659 55.184C187.299 55.184 187.849 55.04 188.307 54.752C188.766 54.4533 189.107 54.0267 189.331 53.472V52.096H186.691C185.251 52.096 184.531 52.5973 184.531 53.6C184.531 54.0907 184.718 54.48 185.091 54.768C185.465 55.0453 185.987 55.184 186.659 55.184ZM197.985 55.488C197.771 55.68 197.505 55.8293 197.185 55.936C196.875 56.032 196.55 56.08 196.209 56.08C195.419 56.08 194.811 55.8667 194.385 55.44C193.958 55.0133 193.745 54.4107 193.745 53.632V48.544H192.241V47.584H193.745V45.744H194.881V47.584H197.441V48.544H194.881V53.568C194.881 54.0693 195.003 54.4533 195.249 54.72C195.505 54.976 195.867 55.104 196.337 55.104C196.571 55.104 196.795 55.0667 197.009 54.992C197.233 54.9173 197.425 54.8107 197.585 54.672L197.985 55.488Z" fill="white"/>
<defs>
<linearGradient id="paint0_linear_2001_2" x1="139.016" y1="10" x2="139.016" y2="67" gradientUnits="userSpaceOnUse">
<stop stop-color="#5AD265"/>
<stop offset="1" stop-color="#26B43D"/>
</linearGradient>
<linearGradient id="paint1_linear_2001_2" x1="38.4997" y1="75.6677" x2="38.4997" y2="1.33339" gradientUnits="userSpaceOnUse">
<stop stop-color="#20B038"/>
<stop offset="1" stop-color="#60D66A"/>
</linearGradient>
<linearGradient id="paint2_linear_2001_2" x1="38.5" y1="77" x2="38.5" y2="0" gradientUnits="userSpaceOnUse">
<stop stop-color="#F9F9F9"/>
<stop offset="1" stop-color="white"/>
</linearGradient>
<clipPath id="clip0_2001_2">
<rect width="77" height="77" fill="white"/>
</clipPath>
</defs>
</svg>
